<svg id="visual" viewBox="0 0 900 600" width="900" height="600" xmlns="http://www.w3.org/2000/svg" xmlns:xlink="http://www.w3.org/1999/xlink" version="1.1"><rect x="0" y="0" width="900" height="600" fill="#001122"></rect><path d="M0 352L21.5 352C43 352 86 352 128.8 364.8C171.7 377.7 214.3 403.3 257.2 403.3C300 403.3 343 377.7 385.8 370.3C428.7 363 471.3 374 514.2 377.2C557 380.3 600 375.7 642.8 382.7C685.7 389.7 728.3 408.3 771.2 414.3C814 420.3 857 413.7 878.5 410.3L900 407L900 601L878.5 601C857 601 814 601 771.2 601C728.3 601 685.7 601 642.8 601C600 601 557 601 514.2 601C471.3 601 428.7 601 385.8 601C343 601 300 601 257.2 601C214.3 601 171.7 601 128.8 601C86 601 43 601 21.5 601L0 601Z" fill="#ff718c"></path><path d="M0 422L21.5 431.3C43 440.7 86 459.3 128.8 458.2C171.7 457 214.3 436 257.2 432C300 428 343 441 385.8 441.5C428.7 442 471.3 430 514.2 425.5C557 421 600 424 642.8 434.2C685.7 444.3 728.3 461.7 771.2 469C814 476.3 857 473.7 878.5 472.3L900 471L900 601L878.5 601C857 601 814 601 771.2 601C728.3 601 685.7 601 642.8 601C600 601 557 601 514.2 601C471.3 601 428.7 601 385.8 601C343 601 300 601 257.2 601C214.3 601 171.7 601 128.8 601C86 601 43 601 21.5 601L0 601Z" fill="#fe4c6d"></path><path d="M0 463L21.5 463.5C43 464 86 465 128.8 466.2C171.7 467.3 214.3 468.7 257.2 469.8C300 471 343 472 385.8 470.5C428.7 469 471.3 465 514.2 459.2C557 453.3 600 445.7 642.8 450.3C685.7 455 728.3 472 771.2 481.3C814 490.7 857 492.3 878.5 493.2L900 494L900 601L878.5 601C857 601 814 601 771.2 601C728.3 601 685.7 601 642.8 601C600 601 557 601 514.2 601C471.3 601 428.7 601 385.8 601C343 601 300 601 257.2 601C214.3 601 171.7 601 128.8 601C86 601 43 601 21.5 601L0 601Z" fill="#fa054c"></path><path d="M0 542L21.5 534.8C43 527.7 86 513.3 128.8 510.3C171.7 507.3 214.3 515.7 257.2 513C300 510.3 343 496.7 385.8 494.7C428.7 492.7 471.3 502.3 514.2 511.8C557 521.3 600 530.7 642.8 532.8C685.7 535 728.3 530 771.2 530.3C814 530.7 857 536.3 878.5 539.2L900 542L900 601L878.5 601C857 601 814 601 771.2 601C728.3 601 685.7 601 642.8 601C600 601 557 601 514.2 601C471.3 601 428.7 601 385.8 601C343 601 300 601 257.2 601C214.3 601 171.7 601 128.8 601C86 601 43 601 21.5 601L0 601Z" fill="#d90144"></path><path d="M0 560L21.5 556C43 552 86 544 128.8 539.8C171.7 535.7 214.3 535.3 257.2 536.3C300 537.3 343 539.7 385.8 544.5C428.7 549.3 471.3 556.7 514.2 555.7C557 554.7 600 545.3 642.8 540C685.7 534.7 728.3 533.3 771.2 532.7C814 532 857 532 878.5 532L900 532L900 601L878.5 601C857 601 814 601 771.2 601C728.3 601 685.7 601 642.8 601C600 601 557 601 514.2 601C471.3 601 428.7 601 385.8 601C343 601 300 601 257.2 601C214.3 601 171.7 601 128.8 601C86 601 43 601 21.5 601L0 601Z" fill="#b8003b"></path></svg>